# AST/ASF file generated using VICON BodyLanguage
# -----------------------------------------------
:version 1.10
:name VICON
:units
  mass 1.0
  length 0.45
  angle deg
:documentation
   .ast/.asf automatically generated from VICON data using
   VICON BodyBuilder and BodyLanguage model FoxedUp or BRILLIANT.MOD
:root
   order TX TY TZ RX RY RZ
   axis XYZ
   position 0 0 0  
   orientation 0 0 0 
:bonedata
  begin
     id 1 
     name lhipjoint
     direction 0.729592 -0.560644 0.39163 
     length 2.81907 
     axis 0 0 0  XYZ
  end
  begin
     id 2 
     name lfemur
     direction 0.34202 -0.939693 0  
     length 5.92797  
     axis 0 0 20  XYZ
    dof rx ry rz
    limits (-160.0 20.0)
           (-70.0 70.0)
           (-60.0 70.0)
  end
  begin
     id 3 
     name ltibia
     direction 0.34202 -0.939693 0   
     length 7.88118   
     axis 0 0 20   XYZ
    dof rx
    limits (-10.0 170.0)
  end
  begin
     id 4 
     name lfoot
     direction 0.0476411 -0.130893 0.990251   
     length 1.97348   
     axis -90 7.62852e-016 20   XYZ
    dof rx rz
    limits (-45.0 90.0)
           (-70.0 20.0)
  end
  begin
     id 5 
     name ltoes
     direction 1.53635e-011 -4.21786e-011 1   
     length 0.999366   
     axis -90 7.62852e-016 20   XYZ
    dof rx
    limits (-90.0 20.0)
  end
  begin
     id 6 
     name rhipjoint
     direction -0.702143 -0.583724 0.407752   
     length 2.70761  
     axis 0 0 0  XYZ 
  end
  begin
     id 7 
     name rfemur
     direction -0.34202 -0.939693 0   
     length 5.98021   
     axis 0 0 -20   XYZ
    dof rx ry rz
    limits (-160.0 20.0)
           (-70.0 70.0)
           (-70.0 60.0)
  end
  begin
     id 8 
     name rtibia
     direction -0.34202 -0.939693 0   
     length 7.66627   
     axis 0 0 -20   XYZ
    dof rx
    limits (-10.0 170.0)
 end
 begin
     id 9 
     name rfoot
     direction -0.0516088 -0.141794 0.98855   
     length 2.01387  
     axis -90 -7.62852e-016 -20   XYZ
    dof rx rz
    limits (-45.0 90.0)
           (-20.0 70.0)
  end
  begin
     id 10 
     name rtoes
     direction -1.53568e-011 -4.21939e-011 1   
     length 1.01862   
     axis -90 -7.62852e-016 -20   XYZ
    dof rx
    limits (-90.0 20.0)
  end
  begin
     id 11 
     name lowerback
     direction -0.0436953 0.98817 -0.147007   
     length 1.83615   
     axis 0 0 0   XYZ
    dof rx ry rz
    limits (-20.0 45.0)
           (-30.0 30.0)
           (-30.0 30.0)
  end
  begin
     id 12 
     name upperback
     direction 0.0239184 0.998197 0.0550483   
     length 1.80285   
     axis 0 0 0   XYZ
    dof rx ry rz
    limits (-20.0 45.0)
           (-30.0 30.0)
           (-30.0 30.0)
  end
  begin
     id 13 
     name thorax
     direction 0.0460768 0.990713 0.127927   
     length 1.87059   
     axis 0 0 0   XYZ
    dof rx ry rz
    limits (-20.0 45.0)
           (-30.0 30.0)
           (-30.0 30.0)
  end
  begin
     id 14 
     name lowerneck
     direction -0.0234223 0.997727 0.0631897   
     length 1.79511   
     axis 0 0 0   XYZ
    dof rx ry rz
    limits (-20.0 45.0)
           (-30.0 30.0)
           (-30.0 30.0)
  end
  begin
     id 15 
     name upperneck
     direction 0.0345303 0.984409 -0.172474   
     length 1.80359   
     axis 0 0 0   XYZ
    dof rx ry rz
    limits (-20.0 45.0)
           (-30.0 30.0)
           (-30.0 30.0)
  end
  begin
     id 16
     name head
     direction 0.00973222 0.9978 -0.0655778  
     length 1.81938  
     axis 0 0 0   XYZ
    dof rx ry rz
    limits (-20.0 45.0)
           (-30.0 30.0)
           (-30.0 30.0)
  end
  begin
     id 17 
     name lclavicle
     direction 0.971201 0.212597 -0.10757  
     length 3.74698  
     axis 0 0 0   XYZ
    dof ry rz
    limits (-20.0 10.0)
           (0.0 20.0)
  end
  begin
     id 18 
     name lhumerus
     direction 1 -4.4896e-011 1.42684e-027   
     length 4.83799   
     axis 180 -30 -90   XYZ
    dof rx ry rz
    limits (-60.0 90.0)
           (-90.0 90.0)
           (-90.0 90.0)
  end
  begin
     id 19
     name lradius
     direction 1 -4.48978e-011 1.53407e-026   
     length 2.68259   
     axis 180 -30 -90   XYZ
    dof rx
    limits (-10.0 170.0)
  end
  begin
     id 20
     name lwrist
     direction 1 -4.48982e-011 3.34345e-026   
     length 1.34129   
     axis -2.22354e-014 90 90   XYZ
    dof ry
    limits (-180.0 0.0)
 end
  begin
     id 21 
     name lhand
     direction 1 -4.48992e-011 6.6869e-026   
     length 0.724765   
     axis -4.26681e-014 90 90   XYZ
    dof rx rz
    limits (-90.0 90.0)
           (-45.0 45.0)
  end
  begin
     id 22 
     name lfingers
     direction 1 -4.48965e-011 1.33738e-025   
     length 0.584325   
     axis -8.53362e-014 90 90   XYZ
    dof rx
    limits (0.0 90.0)
  end
  begin
     id 23
     name lthumb
     direction 0.707107 -6.34915e-011 0.707107   
     length 0.838977   
     axis -90 45 2.85299e-015   XYZ
    dof rx rz
    limits (-45.0 45.0)
           (-45.0 45.0)
  end
  begin
     id 24 
     name rclavicle
     direction -0.987829 0.146084 -0.0534135   
     length 3.83678  
     axis 0 0 0   XYZ 
    dof ry rz
    limits (-10.0 20.0)
           (-20.0 0.0)
  end
  begin
     id 25 
     name rhumerus
     direction -1 -4.48963e-011 -3.4086e-018  
     length 4.61639   
     axis 180 30 90   XYZ
    dof rx ry rz
    limits (-90.0 60.0)
           (-90.0 90.0)
           (-90.0 90.0)
  end
  begin
     id 26 
     name rradius
     direction -1 -4.48983e-011 1.36226e-026   
     length 2.86915   
     axis 180 30 90   XYZ
    dof rx
    limits (-10.0 170.0)
  end
  begin
     id 27 
     name rwrist
     direction -1 -4.48927e-011 3.34345e-026   
     length 1.43458   
     axis -2.22354e-014 -90 -90   XYZ
    dof ry
    limits (-180.0 0.0)
  end
  begin
     id 28
     name rhand
     direction -1 -4.49071e-011 6.6869e-026   
     length 0.726007   
     axis -4.26681e-014 -90 -90   XYZ
    dof rx rz
    limits (-90.0 90.0)
           (-45.0 45.0)
  end
  begin
     id 29
     name rfingers
     direction -1 -4.48886e-011 1.33738e-025   
     length 0.585326   
     axis -8.53362e-014 -90 -90   XYZ
    dof rx
    limits (0.0 90.0)
  end
  begin
     id 30
     name rthumb
     direction -0.707107 -6.34932e-011 0.707107   
     length 0.840414   
     axis -90 -45 -2.85299e-015   XYZ
    dof rx rz
    limits (-45.0 45.0)
           (-45.0 45.0)
  end
:hierarchy
  begin
    root lhipjoint rhipjoint lowerback
    lhipjoint lfemur
    lfemur ltibia
    ltibia lfoot
    lfoot ltoes
    rhipjoint rfemur
    rfemur rtibia
    rtibia rfoot
    rfoot rtoes
    lowerback upperback
    upperback thorax
    thorax lowerneck lclavicle rclavicle
    lowerneck upperneck
    upperneck head
    lclavicle lhumerus
    lhumerus lradius
    lradius lwrist
    lwrist lhand lthumb
    lhand lfingers
    rclavicle rhumerus
    rhumerus rradius
    rradius rwrist
    rwrist rhand rthumb
    rhand rfingers
  end

#!OML:ASF F:\VICON\USERDATA\INSTALL\rory3\rory3.ASF
:FULLY-SPECIFIED
:DEGREES
128
root -2.80072 16.3399 -14.3114 1.1382 2.21052 -0.0769071
lowerback 12.7245 0.951113 -5.50122
upperback -4.23009 0.498903 1.6295
thorax -11.9052 0.728445 4.79587
lowerneck -8.90588 -5.88792 -5.06888
upperneck 17.7032 -8.29484 5.38605
head 7.33088 -3.86046 1.81994
rclavicle -2.98798e-015 -3.18055e-015
rhumerus -36.109 -5.45024 -82.1422
rradius 20.2859
rwrist 12.1862
rhand -9.87805 21.8617
rfingers 7.12502
rthumb 16.1011 -7.48939
lclavicle -2.98798e-015 -3.18055e-015
lhumerus -35.7272 2.94979 85.8971
lradius 25.0846
lwrist 1.89672
lhand -5.39819 21.2159
lfingers 7.12502
lthumb 20.4108 50.1632
rfemur -8.36356 13.4732 26.4903
rtibia 23.2111
rfoot -15.2728 -8.02247
rtoes 33.2423
lfemur -30.3926 4.82696 -18.7477
ltibia 72.105
lfoot -1.54446 0.199163
ltoes 27.5808
129
root -2.81042 16.3276 -14.2155 1.1744 2.18492 -0.181934
lowerback 12.7594 1.03005 -5.44119
upperback -4.20827 0.615533 1.64168
thorax -11.9153 0.779566 4.7483
lowerneck -9.10351 -5.93712 -5.12369
upperneck 17.7589 -8.35636 5.42706
head 7.39196 -3.885 1.82955
rclavicle -6.31141e-015 -1.63003e-014
rhumerus -35.7583 -5.43652 -82.2004
rradius 20.2204
rwrist 12.624
rhand -10.4203 22.1976
rfingers 7.12502
rthumb 15.5789 -7.19494
lclavicle -6.31141e-015 -1.63003e-014
lhumerus -35.7339 3.26372 85.6505
lradius 24.8502
lwrist 1.57458
lhand -4.93023 21.2011
lfingers 7.12502
lthumb 20.8604 50.0996
rfemur -7.97762 13.5162 26.7586
rtibia 23.1816
rfoot -15.5462 -8.06278
rtoes 33.0442
lfemur -31.3733 4.55733 -18.7876
ltibia 71.2501
lfoot -2.42188 0.333445
ltoes 28.6093
130
root -2.81602 16.3169 -14.1092 1.25131 2.04338 -0.293154
lowerback 12.75 1.15646 -5.30488
upperback -4.22994 0.805716 1.60418
thorax -11.9544 0.859214 4.58502
lowerneck -9.26178 -6.03716 -5.06364
upperneck 17.9994 -8.49408 5.33672
head 7.50002 -3.94825 1.77001
rclavicle -8.13775e-016 -1.78906e-014
rhumerus -35.3974 -5.30488 -82.4092
rradius 20.1743
rwrist 12.3671
rhand -10.6227 22.5276
rfingers 7.12502
rthumb 15.384 -6.88002
lclavicle -8.13775e-016 -1.78906e-014
lhumerus -35.8426 3.08974 85.6386
lradius 24.9331
lwrist 1.62118
lhand -4.46312 22.8607
lfingers 7.12502
lthumb 21.3092 51.7092
rfemur -7.5473 13.5475 27.0005
rtibia 23.0429
rfoot -15.6839 -8.08934
rtoes 32.8221
lfemur -32.1923 4.34378 -18.832
ltibia 70.2009
lfoot -3.33047 0.328353
ltoes 27.2401
131
root -2.81756 16.3129 -13.9963 1.30125 2.0976 -0.390268
lowerback 12.7205 1.15214 -5.0947
upperback -4.25581 0.834006 1.56873
thorax -11.9628 0.855731 4.41929
lowerneck -9.05747 -6.11605 -4.98695
upperneck 17.9117 -8.59039 5.191
head 7.43039 -4.00714 1.70742
rclavicle 2.0304e-014 3.97569e-016
rhumerus -35.0543 -4.92894 -82.7022
rradius 20.1469
rwrist 11.8969
rhand -10.3168 21.6394
rfingers 7.12502
rthumb 15.6785 -7.74541
lclavicle 2.0304e-014 3.97569e-016
lhumerus -35.9939 3.01522 85.6104
lradius 24.8768
lwrist 1.80957
lhand -4.42303 22.8317
lfingers 7.12502
lthumb 21.3477 51.6758
rfemur -6.99033 13.5361 27.2334
rtibia 22.8623
rfoot -16.0703 -8.01864
rtoes 33.0843
lfemur -32.8309 3.88812 -18.9033
ltibia 68.9191
lfoot -4.1413 0.442992
ltoes 25.0002
132
root -2.81931 16.3093 -13.8863 1.27567 2.24371 -0.341977
lowerback 12.708 1.14745 -5.03822
upperback -4.19447 0.832144 1.50735
thorax -11.8819 0.843699 4.31909
lowerneck -8.94362 -6.13291 -4.93198
upperneck 17.6925 -8.60513 5.14484
head 7.33489 -4.01942 1.68748
rclavicle 2.39163e-015 1.63003e-014
rhumerus -34.7764 -4.59995 -82.932
rradius 20.446
rwrist 11.6648
rhand -10.4403 21.242
rfingers 7.12502
rthumb 15.5596 -8.15206
lclavicle 2.39163e-015 1.63003e-014
lhumerus -36.0076 2.80782 85.6735
lradius 24.7167
lwrist 2.16135
lhand -4.53955 21.2265
lfingers 7.12502
lthumb 21.2358 50.0832
rfemur -6.32652 13.4404 27.3451
rtibia 22.6631
rfoot -16.4609 -8.06497
rtoes 32.8282
lfemur -33.337 3.27555 -19.0811
ltibia 67.4394
lfoot -4.73795 0.646595
ltoes 26.0221
133
root -2.82062 16.2995 -13.78 1.25968 2.32024 -0.319814
lowerback 12.7406 1.18198 -4.97586
upperback -4.14757 0.88332 1.4611
thorax -11.8511 0.859001 4.22031
lowerneck -9.00367 -6.11747 -5.01065
upperneck 17.589 -8.58624 5.27064
head 7.32003 -4.00457 1.74159
rclavicle 9.09129e-015 4.87022e-015
rhumerus -34.5255 -4.47554 -83.0408
rradius 20.6988
rwrist 11.4157
rhand -11.2989 22.7132
rfingers 7.12502
rthumb 14.7325 -6.74329
lclavicle 9.09129e-015 4.87022e-015
lhumerus -36.0843 2.48379 85.9339
lradius 25.1185
lwrist 2.396
lhand -4.24888 22.8412
lfingers 7.12502
lthumb 21.5149 51.6663
rfemur -5.69022 13.3741 27.4653
rtibia 22.4089
rfoot -16.7412 -8.16203
rtoes 32.2595
lfemur -33.785 2.70095 -19.1846
ltibia 65.8315
lfoot -5.31075 0.726589
ltoes 26.8354
134
root -2.8209 16.2848 -13.6733 1.28956 2.41201 -0.370602
lowerback 12.8265 1.19721 -4.83501
upperback -4.23102 0.920783 1.43929
thorax -11.9978 0.870975 4.10765
lowerneck -8.93054 -6.14298 -5.0464
upperneck 17.5775 -8.62159 5.28991
head 7.30781 -4.02373 1.75231
rclavicle 9.03849e-015 1.88845e-015
rhumerus -34.4108 -4.2481 -83.1864
rradius 20.8363
rwrist 10.8576
rhand -11.5615 23.2945
rfingers 7.12502
rthumb 14.4795 -6.18027
lclavicle 9.03849e-015 1.88845e-015
lhumerus -36.5417 2.23013 86.1176
lradius 25.404
lwrist 2.26208
lhand -4.48796 24.087
lfingers 7.12502
lthumb 21.2853 52.9381
rfemur -5.10711 13.3968 27.6578
rtibia 22.1458
rfoot -17.1629 -8.19836
rtoes 32.0374
lfemur -34.2098 2.0825 -19.1762
ltibia 64.1121
lfoot -5.88187 0.678503
ltoes 26.4043
135
root -2.82061 16.2793 -13.5657 1.43538 2.38957 -0.564903
lowerback 12.7348 1.23875 -4.5879
upperback -4.26782 1.02668 1.46111
thorax -11.9896 0.904009 3.96665
lowerneck -9.02909 -6.24875 -4.99831
upperneck 17.5573 -8.7542 5.20661
head 7.3202 -4.08933 1.70128
rclavicle 2.38448e-014 1.0138e-014
rhumerus -34.1751 -3.70979 -83.4878
rradius 21.1442
rwrist 10.2597
rhand -11.0745 22.1557
rfingers 7.12502
rthumb 14.9487 -7.28478
lclavicle 2.38448e-014 1.0138e-014
lhumerus -36.7341 2.05021 86.2579
lradius 25.4698
lwrist 2.35014
lhand -4.92569 23.676
lfingers 7.12502
lthumb 20.8648 52.574
rfemur -4.66406 13.4345 27.9633
rtibia 21.8423
rfoot -17.4336 -8.14185
rtoes 32.0541
lfemur -34.6913 1.50887 -18.9699
ltibia 62.2582
lfoot -6.35396 0.631177
ltoes 26.526
136
root -2.82545 16.2761 -13.4614 1.58324 2.44448 -0.685998
lowerback 12.6972 1.26547 -4.53451
upperback -4.27274 1.07821 1.5006
thorax -11.9777 0.926141 3.96804
lowerneck -9.21584 -6.26918 -4.99384
upperneck 17.6023 -8.77461 5.19069
head 7.36823 -4.09559 1.68702
rclavicle 1.12003e-014 2.98177e-016
rhumerus -33.8878 -3.2501 -83.731
rradius 21.4365
rwrist 10.1202
rhand -10.1961 20.4771
rfingers 7.12502
rthumb 15.7948 -8.89853
lclavicle 1.12003e-014 2.98177e-016
lhumerus -36.6859 2.19786 86.1609
lradius 25.029
lwrist 1.91702
lhand -4.93778 21.6377
lfingers 7.12502
lthumb 20.8532 50.537
rfemur -4.13133 13.4808 28.222
rtibia 21.37
rfoot -17.5484 -8.43497
rtoes 31.654
lfemur -35.1109 0.837226 -18.7743
ltibia 60.2237
lfoot -6.40228 0.649696
ltoes 28.079
137
root -2.825 16.2709 -13.3518 1.56353 2.7066 -0.633482
lowerback 12.8151 1.21425 -4.57052
upperback -4.29702 0.997871 1.50545
thorax -12.0688 0.893955 4.01252
lowerneck -9.25143 -6.21486 -5.11258
upperneck 17.7677 -8.68892 5.19872
head 7.4296 -4.05876 1.71501
rclavicle -1.27005e-014 3.97569e-016
rhumerus -33.6006 -3.17147 -83.7507
rradius 21.4449
rwrist 10.2926
rhand -10.2666 20.664
rfingers 7.12502
rthumb 15.727 -8.717
lclavicle -1.27005e-014 3.97569e-016
lhumerus -36.8666 2.13115 86.227
lradius 24.8261
lwrist 1.85314
lhand -4.71432 20.7464
lfingers 7.12502
lthumb 21.0679 49.6219
rfemur -3.1995 13.3753 28.3406
rtibia 20.654
rfoot -17.6273 -8.83527
rtoes 31.4625
lfemur -35.1917 -0.178756 -18.7487
ltibia 58.0184
lfoot -6.53291 0.590414
ltoes 28.6152
138
root -2.81372 16.277 -13.2279 1.49353 2.74576 -0.55787
lowerback 12.7887 1.22379 -4.45224
upperback -4.28051 1.025 1.43558
thorax -12.0314 0.892917 3.8615
lowerneck -9.19935 -6.25007 -5.22315
upperneck 17.7872 -8.7406 5.29183
head 7.43905 -4.08337 1.75897
rclavicle -7.0817e-016 -8.84592e-015
rhumerus -33.2725 -2.71745 -83.9545
rradius 21.5413
rwrist 9.65769
rhand -11.1333 21.7241
rfingers 7.12502
rthumb 14.8921 -7.72065
lclavicle -7.0817e-016 -8.84592e-015
lhumerus -37.1099 2.11251 86.2679
lradius 24.7168
lwrist 1.73606
lhand -4.70183 20.4715
lfingers 7.12502
lthumb 21.0799 49.3457
rfemur -2.09857 13.202 28.367
rtibia 19.8022
rfoot -17.6304 -8.86893
rtoes 30.8409
lfemur -35.0248 -1.10108 -18.7675
ltibia 55.6553
lfoot -6.91776 0.62861
ltoes 26.2639
139
root -2.80814 16.2848 -13.1117 1.51421 2.68613 -0.778013
lowerback 12.7307 1.23914 -4.14772
upperback -4.25533 1.10563 1.46798
thorax -11.9676 0.907464 3.70527
lowerneck -9.13722 -6.27796 -5.29335
upperneck 17.602 -8.7872 5.43536
head 7.3801 -4.10133 1.81519
rclavicle -4.74909e-015 2.68359e-015
rhumerus -32.9387 -1.95398 -84.3293
rradius 21.9451
rwrist 8.82886
rhand -10.9273 21.3583
rfingers 7.12502
rthumb 15.0905 -8.0716
lclavicle -4.74909e-015 2.68359e-015
lhumerus -37.1376 2.35167 86.1762
lradius 24.3306
lwrist 1.35421
lhand -4.78304 19.9225
lfingers 7.12502
lthumb 21.0019 48.8054
rfemur -1.11439 13.3235 28.7224
rtibia 18.8174
rfoot -17.5785 -9.11462
rtoes 30.4405
lfemur -35.0556 -1.94898 -18.3713
ltibia 53.2751
lfoot -6.93086 0.845754
ltoes 24.9119
140
root -2.81179 16.2849 -13.0073 1.57799 2.921 -0.931797
lowerback 12.7634 1.13193 -4.08598
upperback -4.23103 0.983375 1.57753
thorax -11.9481 0.849384 3.81926
lowerneck -9.17833 -6.22398 -5.32596
upperneck 17.5618 -8.69311 5.38551
head 7.36806 -4.06232 1.81306
rclavicle -8.82107e-015 -1.71949e-014
rhumerus -32.555 -1.02529 -84.708
rradius 22.3416
rwrist 8.04409
rhand -9.72959 19.9506
rfingers 7.12502
rthumb 16.244 -9.38891
lclavicle -8.82107e-015 -1.71949e-014
lhumerus -37.0861 2.91522 86.0548
lradius 24.0962
lwrist 0.909372
lhand -4.6816 19.875
lfingers 7.12502
lthumb 21.0993 48.747
rfemur -0.089668 13.3563 29.0568
rtibia 17.6371
rfoot -17.4884 -9.61639
rtoes 29.5172
lfemur -35.1934 -3.05808 -17.9613
ltibia 50.8958
lfoot -6.59302 0.973097
ltoes 24.6942
141
root -2.80759 16.2853 -12.8956 1.68096 3.16203 -0.939636
lowerback 12.693 1.05715 -4.0672
upperback -4.24142 0.891784 1.60509
thorax -11.9081 0.805217 3.86019
lowerneck -9.1277 -6.20678 -5.28674
upperneck 17.5016 -8.65049 5.26242
head 7.32962 -4.05162 1.77345
rclavicle -4.88886e-015 -6.36111e-015
rhumerus -32.5062 -0.406193 -84.9432
rradius 22.727
rwrist 7.66473
rhand -9.59814 19.9195
rfingers 7.12502
rthumb 16.3706 -9.40959
lclavicle -4.88886e-015 -6.36111e-015
lhumerus -37.2122 3.14499 86.0635
lradius 24.2767
lwrist 0.77207
lhand -4.29053 20.2965
lfingers 7.12502
lthumb 21.4749 49.1262
rfemur 1.02792 13.2432 29.1874
rtibia 16.3362
rfoot -17.4348 -9.8652
rtoes 29.2311
lfemur -35.2895 -4.13858 -17.737
ltibia 48.535
lfoot -6.40414 1.18811
ltoes 23.1554
